<?xml version="1.0" encoding="UTF-8"?>
<svg id="Capa_2" data-name="Capa 2" xmlns="http://www.w3.org/2000/svg" viewBox="0 0 752.47 713.6">
  <defs>
    <style>
      .cls-1 {
        fill: #c7212f;
      }

      .cls-2 {
        fill: #033a89;
      }
    </style>
  </defs>
  <g id="Capa_1-2" data-name="Capa 1">
    <g>
      <path class="cls-1" d="M348.21,223.3c-17.19,26.51-39.9,51.88-63.33,58.36-2.78.77-3.51,4.33-1.32,6.2,16.81,14.33,39.94,15.84,58.97,3.41,12.52-8.18,23.02-18.69,32.17-30.52.92-1.19.95-2.8.07-4.02-2.86-3.96-5.73-8.18-8.58-12.66-4.49-7.05-8.39-13.91-11.79-20.46-1.28-2.47-4.68-2.63-6.19-.3Z"/>
      <path class="cls-1" d="M751.23,615.23c-13.66-73.71-88.63-131.67-165.09-132.53-8.48-.1-14.52-8.18-11.74-16.19,45.15-130.06,90.3-260.12,135.45-390.18,2.92-8.41-.05-17.7-7.17-23.03-76.02-56.93-166.28-69.38-229.02-31.86-14.55,8.7-41.11,28.16-61,69.06l-34.64,75.35c-1.13,2.46-1.13,5.3,0,7.76l6.07,13.2c3.67,7.99,8.26,16.81,13.54,25.76,1.41,2.4,4.94,2.3,6.25-.15l42.83-80.13c37.81-70.74,136.57-82.31,130.59-48.68l-83.52,469.43c-5,28.11,5.75,55.1,20.3,78.05,40.39,63.72,130.65,103.35,194.72,71.04,32.99-16.64,48.32-50.36,42.43-86.87Z"/>
      <path class="cls-2" d="M374.56,173.36c1.06-2.31,1.06-4.97,0-7.28l-34.75-75.59c-19.89-40.9-46.45-60.36-61-69.06C215.97-16.15,125.54-3.61,49.45,53.54c-6.92,5.2-9.81,14.21-6.97,22.38,45.27,130.42,90.55,260.84,135.82,391.26,2.67,7.68-3.12,15.45-11.25,15.51-76.72.5-152.11,58.6-165.81,132.54-5.88,36.52,9.44,70.23,42.43,86.87,64.07,32.31,154.33-7.32,194.72-71.04,14.55-22.95,25.3-49.94,20.3-78.05L175.17,83.59c-5.98-33.63,92.78-22.06,130.59,48.68l42.83,80.13c1.31,2.45,4.84,2.55,6.25.15,5.28-8.96,9.87-17.78,13.54-25.76l6.18-13.44Z"/>
      <path class="cls-2" d="M377.69,256.71c-.88,1.22-.84,2.83.07,4.02,9.15,11.83,19.65,22.35,32.17,30.52,19.03,12.43,42.15,10.93,58.97-3.41,2.19-1.87,1.46-5.43-1.32-6.2-23.42-6.48-46.14-31.85-63.33-58.36-1.51-2.33-4.91-2.17-6.19.3-3.4,6.55-7.3,13.41-11.79,20.46-2.85,4.48-5.73,8.69-8.58,12.66Z"/>
    </g>
  </g>
</svg>